<?xml version="1.0" encoding="UTF-8"?>
<!DOCTYPE svg PUBLIC "-//W3C//DTD SVG 1.1//EN" "http://www.w3.org/Graphics/SVG/1.1/DTD/svg11.dtd">
<svg width="160mm" height="90mm" viewBox="0 0 16000 9000" version="1.1" xmlns="http://www.w3.org/2000/svg" stroke-width="28.222" stroke-linejoin="round" xml:space="preserve">
 <path fill="rgb(255,255,255)" stroke="none" d="M 8000,8999 L 0,8999 0,0 15999,0 15999,8999 8000,8999 Z"/>
 <path fill="none" stroke="rgb(179,179,179)" stroke-linejoin="round" d="M 8784,7046 L 2138,7046 2138,1474 15431,1474 15431,7046 8784,7046 Z"/>
 <path fill="none" stroke="rgb(179,179,179)" stroke-linejoin="round" d="M 15430,7045 L 2138,7045"/>
 <path fill="none" stroke="rgb(179,179,179)" stroke-linejoin="round" d="M 15430,6248 L 2138,6248"/>
 <path fill="none" stroke="rgb(179,179,179)" stroke-linejoin="round" d="M 15430,5452 L 2138,5452"/>
 <path fill="none" stroke="rgb(179,179,179)" stroke-linejoin="round" d="M 15430,4656 L 2138,4656"/>
 <path fill="none" stroke="rgb(179,179,179)" stroke-linejoin="round" d="M 15430,3861 L 2138,3861"/>
 <path fill="none" stroke="rgb(179,179,179)" stroke-linejoin="round" d="M 15430,3065 L 2138,3065"/>
 <path fill="none" stroke="rgb(179,179,179)" stroke-linejoin="round" d="M 15430,2269 L 2138,2269"/>
 <path fill="none" stroke="rgb(179,179,179)" stroke-linejoin="round" d="M 15430,1473 L 2138,1473"/>
 <path fill="none" stroke="rgb(179,179,179)" stroke-linejoin="round" d="M 2138,7195 L 2138,7045"/>
 <path fill="none" stroke="rgb(179,179,179)" stroke-linejoin="round" d="M 2138,7195 L 2138,7045"/>
 <path fill="none" stroke="rgb(179,179,179)" stroke-linejoin="round" d="M 2287,7195 L 2287,7045"/>
 <path fill="none" stroke="rgb(179,179,179)" stroke-linejoin="round" d="M 2287,7195 L 2287,7045"/>
 <path fill="none" stroke="rgb(179,179,179)" stroke-linejoin="round" d="M 2436,7195 L 2436,7045"/>
 <path fill="none" stroke="rgb(179,179,179)" stroke-linejoin="round" d="M 2436,7195 L 2436,7045"/>
 <path fill="none" stroke="rgb(179,179,179)" stroke-linejoin="round" d="M 2586,7195 L 2586,7045"/>
 <path fill="none" stroke="rgb(179,179,179)" stroke-linejoin="round" d="M 2586,7195 L 2586,7045"/>
 <path fill="none" stroke="rgb(179,179,179)" stroke-linejoin="round" d="M 2735,7195 L 2735,7045"/>
 <path fill="none" stroke="rgb(179,179,179)" stroke-linejoin="round" d="M 2735,7195 L 2735,7045"/>
 <path fill="none" stroke="rgb(179,179,179)" stroke-linejoin="round" d="M 2884,7195 L 2884,7045"/>
 <path fill="none" stroke="rgb(179,179,179)" stroke-linejoin="round" d="M 2884,7195 L 2884,7045"/>
 <path fill="none" stroke="rgb(179,179,179)" stroke-linejoin="round" d="M 3034,7195 L 3034,7045"/>
 <path fill="none" stroke="rgb(179,179,179)" stroke-linejoin="round" d="M 3034,7195 L 3034,7045"/>
 <path fill="none" stroke="rgb(179,179,179)" stroke-linejoin="round" d="M 3183,7195 L 3183,7045"/>
 <path fill="none" stroke="rgb(179,179,179)" stroke-linejoin="round" d="M 3183,7195 L 3183,7045"/>
 <path fill="none" stroke="rgb(179,179,179)" stroke-linejoin="round" d="M 3332,7195 L 3332,7045"/>
 <path fill="none" stroke="rgb(179,179,179)" stroke-linejoin="round" d="M 3332,7195 L 3332,7045"/>
 <path fill="none" stroke="rgb(179,179,179)" stroke-linejoin="round" d="M 3482,7195 L 3482,7045"/>
 <path fill="none" stroke="rgb(179,179,179)" stroke-linejoin="round" d="M 3482,7195 L 3482,7045"/>
 <path fill="none" stroke="rgb(179,179,179)" stroke-linejoin="round" d="M 3631,7195 L 3631,7045"/>
 <path fill="none" stroke="rgb(179,179,179)" stroke-linejoin="round" d="M 3631,7195 L 3631,7045"/>
 <path fill="none" stroke="rgb(179,179,179)" stroke-linejoin="round" d="M 3781,7195 L 3781,7045"/>
 <path fill="none" stroke="rgb(179,179,179)" stroke-linejoin="round" d="M 3781,7195 L 3781,7045"/>
 <path fill="none" stroke="rgb(179,179,179)" stroke-linejoin="round" d="M 3930,7195 L 3930,7045"/>
 <path fill="none" stroke="rgb(179,179,179)" stroke-linejoin="round" d="M 3930,7195 L 3930,7045"/>
 <path fill="none" stroke="rgb(179,179,179)" stroke-linejoin="round" d="M 4079,7195 L 4079,7045"/>
 <path fill="none" stroke="rgb(179,179,179)" stroke-linejoin="round" d="M 4079,7195 L 4079,7045"/>
 <path fill="none" stroke="rgb(179,179,179)" stroke-linejoin="round" d="M 4229,7195 L 4229,7045"/>
 <path fill="none" stroke="rgb(179,179,179)" stroke-linejoin="round" d="M 4229,7195 L 4229,7045"/>
 <path fill="none" stroke="rgb(179,179,179)" stroke-linejoin="round" d="M 4378,7195 L 4378,7045"/>
 <path fill="none" stroke="rgb(179,179,179)" stroke-linejoin="round" d="M 4378,7195 L 4378,7045"/>
 <path fill="none" stroke="rgb(179,179,179)" stroke-linejoin="round" d="M 4527,7195 L 4527,7045"/>
 <path fill="none" stroke="rgb(179,179,179)" stroke-linejoin="round" d="M 4527,7195 L 4527,7045"/>
 <path fill="none" stroke="rgb(179,179,179)" stroke-linejoin="round" d="M 4677,7195 L 4677,7045"/>
 <path fill="none" stroke="rgb(179,179,179)" stroke-linejoin="round" d="M 4677,7195 L 4677,7045"/>
 <path fill="none" stroke="rgb(179,179,179)" stroke-linejoin="round" d="M 4826,7195 L 4826,7045"/>
 <path fill="none" stroke="rgb(179,179,179)" stroke-linejoin="round" d="M 4826,7195 L 4826,7045"/>
 <path fill="none" stroke="rgb(179,179,179)" stroke-linejoin="round" d="M 4976,7195 L 4976,7045"/>
 <path fill="none" stroke="rgb(179,179,179)" stroke-linejoin="round" d="M 4976,7195 L 4976,7045"/>
 <path fill="none" stroke="rgb(179,179,179)" stroke-linejoin="round" d="M 5125,7195 L 5125,7045"/>
 <path fill="none" stroke="rgb(179,179,179)" stroke-linejoin="round" d="M 5125,7195 L 5125,7045"/>
 <path fill="none" stroke="rgb(179,179,179)" stroke-linejoin="round" d="M 5274,7195 L 5274,7045"/>
 <path fill="none" stroke="rgb(179,179,179)" stroke-linejoin="round" d="M 5274,7195 L 5274,7045"/>
 <path fill="none" stroke="rgb(179,179,179)" stroke-linejoin="round" d="M 5424,7195 L 5424,7045"/>
 <path fill="none" stroke="rgb(179,179,179)" stroke-linejoin="round" d="M 5424,7195 L 5424,7045"/>
 <path fill="none" stroke="rgb(179,179,179)" stroke-linejoin="round" d="M 5573,7195 L 5573,7045"/>
 <path fill="none" stroke="rgb(179,179,179)" stroke-linejoin="round" d="M 5573,7195 L 5573,7045"/>
 <path fill="none" stroke="rgb(179,179,179)" stroke-linejoin="round" d="M 5722,7195 L 5722,7045"/>
 <path fill="none" stroke="rgb(179,179,179)" stroke-linejoin="round" d="M 5722,7195 L 5722,7045"/>
 <path fill="none" stroke="rgb(179,179,179)" stroke-linejoin="round" d="M 5872,7195 L 5872,7045"/>
 <path fill="none" stroke="rgb(179,179,179)" stroke-linejoin="round" d="M 5872,7195 L 5872,7045"/>
 <path fill="none" stroke="rgb(179,179,179)" stroke-linejoin="round" d="M 6021,7195 L 6021,7045"/>
 <path fill="none" stroke="rgb(179,179,179)" stroke-linejoin="round" d="M 6021,7195 L 6021,7045"/>
 <path fill="none" stroke="rgb(179,179,179)" stroke-linejoin="round" d="M 6171,7195 L 6171,7045"/>
 <path fill="none" stroke="rgb(179,179,179)" stroke-linejoin="round" d="M 6171,7195 L 6171,7045"/>
 <path fill="none" stroke="rgb(179,179,179)" stroke-linejoin="round" d="M 6320,7195 L 6320,7045"/>
 <path fill="none" stroke="rgb(179,179,179)" stroke-linejoin="round" d="M 6320,7195 L 6320,7045"/>
 <path fill="none" stroke="rgb(179,179,179)" stroke-linejoin="round" d="M 6469,7195 L 6469,7045"/>
 <path fill="none" stroke="rgb(179,179,179)" stroke-linejoin="round" d="M 6469,7195 L 6469,7045"/>
 <path fill="none" stroke="rgb(179,179,179)" stroke-linejoin="round" d="M 6619,7195 L 6619,7045"/>
 <path fill="none" stroke="rgb(179,179,179)" stroke-linejoin="round" d="M 6619,7195 L 6619,7045"/>
 <path fill="none" stroke="rgb(179,179,179)" stroke-linejoin="round" d="M 6768,7195 L 6768,7045"/>
 <path fill="none" stroke="rgb(179,179,179)" stroke-linejoin="round" d="M 6768,7195 L 6768,7045"/>
 <path fill="none" stroke="rgb(179,179,179)" stroke-linejoin="round" d="M 6917,7195 L 6917,7045"/>
 <path fill="none" stroke="rgb(179,179,179)" stroke-linejoin="round" d="M 6917,7195 L 6917,7045"/>
 <path fill="none" stroke="rgb(179,179,179)" stroke-linejoin="round" d="M 7067,7195 L 7067,7045"/>
 <path fill="none" stroke="rgb(179,179,179)" stroke-linejoin="round" d="M 7067,7195 L 7067,7045"/>
 <path fill="none" stroke="rgb(179,179,179)" stroke-linejoin="round" d="M 7216,7195 L 7216,7045"/>
 <path fill="none" stroke="rgb(179,179,179)" stroke-linejoin="round" d="M 7216,7195 L 7216,7045"/>
 <path fill="none" stroke="rgb(179,179,179)" stroke-linejoin="round" d="M 7365,7195 L 7365,7045"/>
 <path fill="none" stroke="rgb(179,179,179)" stroke-linejoin="round" d="M 7365,7195 L 7365,7045"/>
 <path fill="none" stroke="rgb(179,179,179)" stroke-linejoin="round" d="M 7515,7195 L 7515,7045"/>
 <path fill="none" stroke="rgb(179,179,179)" stroke-linejoin="round" d="M 7515,7195 L 7515,7045"/>
 <path fill="none" stroke="rgb(179,179,179)" stroke-linejoin="round" d="M 7664,7195 L 7664,7045"/>
 <path fill="none" stroke="rgb(179,179,179)" stroke-linejoin="round" d="M 7664,7195 L 7664,7045"/>
 <path fill="none" stroke="rgb(179,179,179)" stroke-linejoin="round" d="M 7814,7195 L 7814,7045"/>
 <path fill="none" stroke="rgb(179,179,179)" stroke-linejoin="round" d="M 7814,7195 L 7814,7045"/>
 <path fill="none" stroke="rgb(179,179,179)" stroke-linejoin="round" d="M 7963,7195 L 7963,7045"/>
 <path fill="none" stroke="rgb(179,179,179)" stroke-linejoin="round" d="M 7963,7195 L 7963,7045"/>
 <path fill="none" stroke="rgb(179,179,179)" stroke-linejoin="round" d="M 8111,7195 L 8111,7045"/>
 <path fill="none" stroke="rgb(179,179,179)" stroke-linejoin="round" d="M 8111,7195 L 8111,7045"/>
 <path fill="none" stroke="rgb(179,179,179)" stroke-linejoin="round" d="M 8261,7195 L 8261,7045"/>
 <path fill="none" stroke="rgb(179,179,179)" stroke-linejoin="round" d="M 8261,7195 L 8261,7045"/>
 <path fill="none" stroke="rgb(179,179,179)" stroke-linejoin="round" d="M 8410,7195 L 8410,7045"/>
 <path fill="none" stroke="rgb(179,179,179)" stroke-linejoin="round" d="M 8410,7195 L 8410,7045"/>
 <path fill="none" stroke="rgb(179,179,179)" stroke-linejoin="round" d="M 8559,7195 L 8559,7045"/>
 <path fill="none" stroke="rgb(179,179,179)" stroke-linejoin="round" d="M 8559,7195 L 8559,7045"/>
 <path fill="none" stroke="rgb(179,179,179)" stroke-linejoin="round" d="M 8709,7195 L 8709,7045"/>
 <path fill="none" stroke="rgb(179,179,179)" stroke-linejoin="round" d="M 8709,7195 L 8709,7045"/>
 <path fill="none" stroke="rgb(179,179,179)" stroke-linejoin="round" d="M 8858,7195 L 8858,7045"/>
 <path fill="none" stroke="rgb(179,179,179)" stroke-linejoin="round" d="M 8858,7195 L 8858,7045"/>
 <path fill="none" stroke="rgb(179,179,179)" stroke-linejoin="round" d="M 9008,7195 L 9008,7045"/>
 <path fill="none" stroke="rgb(179,179,179)" stroke-linejoin="round" d="M 9008,7195 L 9008,7045"/>
 <path fill="none" stroke="rgb(179,179,179)" stroke-linejoin="round" d="M 9157,7195 L 9157,7045"/>
 <path fill="none" stroke="rgb(179,179,179)" stroke-linejoin="round" d="M 9157,7195 L 9157,7045"/>
 <path fill="none" stroke="rgb(179,179,179)" stroke-linejoin="round" d="M 9306,7195 L 9306,7045"/>
 <path fill="none" stroke="rgb(179,179,179)" stroke-linejoin="round" d="M 9306,7195 L 9306,7045"/>
 <path fill="none" stroke="rgb(179,179,179)" stroke-linejoin="round" d="M 9456,7195 L 9456,7045"/>
 <path fill="none" stroke="rgb(179,179,179)" stroke-linejoin="round" d="M 9456,7195 L 9456,7045"/>
 <path fill="none" stroke="rgb(179,179,179)" stroke-linejoin="round" d="M 9605,7195 L 9605,7045"/>
 <path fill="none" stroke="rgb(179,179,179)" stroke-linejoin="round" d="M 9605,7195 L 9605,7045"/>
 <path fill="none" stroke="rgb(179,179,179)" stroke-linejoin="round" d="M 9754,7195 L 9754,7045"/>
 <path fill="none" stroke="rgb(179,179,179)" stroke-linejoin="round" d="M 9754,7195 L 9754,7045"/>
 <path fill="none" stroke="rgb(179,179,179)" stroke-linejoin="round" d="M 9904,7195 L 9904,7045"/>
 <path fill="none" stroke="rgb(179,179,179)" stroke-linejoin="round" d="M 9904,7195 L 9904,7045"/>
 <path fill="none" stroke="rgb(179,179,179)" stroke-linejoin="round" d="M 10053,7195 L 10053,7045"/>
 <path fill="none" stroke="rgb(179,179,179)" stroke-linejoin="round" d="M 10053,7195 L 10053,7045"/>
 <path fill="none" stroke="rgb(179,179,179)" stroke-linejoin="round" d="M 10203,7195 L 10203,7045"/>
 <path fill="none" stroke="rgb(179,179,179)" stroke-linejoin="round" d="M 10203,7195 L 10203,7045"/>
 <path fill="none" stroke="rgb(179,179,179)" stroke-linejoin="round" d="M 10352,7195 L 10352,7045"/>
 <path fill="none" stroke="rgb(179,179,179)" stroke-linejoin="round" d="M 10352,7195 L 10352,7045"/>
 <path fill="none" stroke="rgb(179,179,179)" stroke-linejoin="round" d="M 10501,7195 L 10501,7045"/>
 <path fill="none" stroke="rgb(179,179,179)" stroke-linejoin="round" d="M 10501,7195 L 10501,7045"/>
 <path fill="none" stroke="rgb(179,179,179)" stroke-linejoin="round" d="M 10651,7195 L 10651,7045"/>
 <path fill="none" stroke="rgb(179,179,179)" stroke-linejoin="round" d="M 10651,7195 L 10651,7045"/>
 <path fill="none" stroke="rgb(179,179,179)" stroke-linejoin="round" d="M 10800,7195 L 10800,7045"/>
 <path fill="none" stroke="rgb(179,179,179)" stroke-linejoin="round" d="M 10800,7195 L 10800,7045"/>
 <path fill="none" stroke="rgb(179,179,179)" stroke-linejoin="round" d="M 10949,7195 L 10949,7045"/>
 <path fill="none" stroke="rgb(179,179,179)" stroke-linejoin="round" d="M 10949,7195 L 10949,7045"/>
 <path fill="none" stroke="rgb(179,179,179)" stroke-linejoin="round" d="M 11099,7195 L 11099,7045"/>
 <path fill="none" stroke="rgb(179,179,179)" stroke-linejoin="round" d="M 11099,7195 L 11099,7045"/>
 <path fill="none" stroke="rgb(179,179,179)" stroke-linejoin="round" d="M 11248,7195 L 11248,7045"/>
 <path fill="none" stroke="rgb(179,179,179)" stroke-linejoin="round" d="M 11248,7195 L 11248,7045"/>
 <path fill="none" stroke="rgb(179,179,179)" stroke-linejoin="round" d="M 11397,7195 L 11397,7045"/>
 <path fill="none" stroke="rgb(179,179,179)" stroke-linejoin="round" d="M 11397,7195 L 11397,7045"/>
 <path fill="none" stroke="rgb(179,179,179)" stroke-linejoin="round" d="M 11547,7195 L 11547,7045"/>
 <path fill="none" stroke="rgb(179,179,179)" stroke-linejoin="round" d="M 11547,7195 L 11547,7045"/>
 <path fill="none" stroke="rgb(179,179,179)" stroke-linejoin="round" d="M 11696,7195 L 11696,7045"/>
 <path fill="none" stroke="rgb(179,179,179)" stroke-linejoin="round" d="M 11696,7195 L 11696,7045"/>
 <path fill="none" stroke="rgb(179,179,179)" stroke-linejoin="round" d="M 11846,7195 L 11846,7045"/>
 <path fill="none" stroke="rgb(179,179,179)" stroke-linejoin="round" d="M 11846,7195 L 11846,7045"/>
 <path fill="none" stroke="rgb(179,179,179)" stroke-linejoin="round" d="M 11995,7195 L 11995,7045"/>
 <path fill="none" stroke="rgb(179,179,179)" stroke-linejoin="round" d="M 11995,7195 L 11995,7045"/>
 <path fill="none" stroke="rgb(179,179,179)" stroke-linejoin="round" d="M 12144,7195 L 12144,7045"/>
 <path fill="none" stroke="rgb(179,179,179)" stroke-linejoin="round" d="M 12144,7195 L 12144,7045"/>
 <path fill="none" stroke="rgb(179,179,179)" stroke-linejoin="round" d="M 12294,7195 L 12294,7045"/>
 <path fill="none" stroke="rgb(179,179,179)" stroke-linejoin="round" d="M 12294,7195 L 12294,7045"/>
 <path fill="none" stroke="rgb(179,179,179)" stroke-linejoin="round" d="M 12443,7195 L 12443,7045"/>
 <path fill="none" stroke="rgb(179,179,179)" stroke-linejoin="round" d="M 12443,7195 L 12443,7045"/>
 <path fill="none" stroke="rgb(179,179,179)" stroke-linejoin="round" d="M 12592,7195 L 12592,7045"/>
 <path fill="none" stroke="rgb(179,179,179)" stroke-linejoin="round" d="M 12592,7195 L 12592,7045"/>
 <path fill="none" stroke="rgb(179,179,179)" stroke-linejoin="round" d="M 12742,7195 L 12742,7045"/>
 <path fill="none" stroke="rgb(179,179,179)" stroke-linejoin="round" d="M 12742,7195 L 12742,7045"/>
 <path fill="none" stroke="rgb(179,179,179)" stroke-linejoin="round" d="M 12891,7195 L 12891,7045"/>
 <path fill="none" stroke="rgb(179,179,179)" stroke-linejoin="round" d="M 12891,7195 L 12891,7045"/>
 <path fill="none" stroke="rgb(179,179,179)" stroke-linejoin="round" d="M 13041,7195 L 13041,7045"/>
 <path fill="none" stroke="rgb(179,179,179)" stroke-linejoin="round" d="M 13041,7195 L 13041,7045"/>
 <path fill="none" stroke="rgb(179,179,179)" stroke-linejoin="round" d="M 13190,7195 L 13190,7045"/>
 <path fill="none" stroke="rgb(179,179,179)" stroke-linejoin="round" d="M 13190,7195 L 13190,7045"/>
 <path fill="none" stroke="rgb(179,179,179)" stroke-linejoin="round" d="M 13339,7195 L 13339,7045"/>
 <path fill="none" stroke="rgb(179,179,179)" stroke-linejoin="round" d="M 13339,7195 L 13339,7045"/>
 <path fill="none" stroke="rgb(179,179,179)" stroke-linejoin="round" d="M 13489,7195 L 13489,7045"/>
 <path fill="none" stroke="rgb(179,179,179)" stroke-linejoin="round" d="M 13489,7195 L 13489,7045"/>
 <path fill="none" stroke="rgb(179,179,179)" stroke-linejoin="round" d="M 13638,7195 L 13638,7045"/>
 <path fill="none" stroke="rgb(179,179,179)" stroke-linejoin="round" d="M 13638,7195 L 13638,7045"/>
 <path fill="none" stroke="rgb(179,179,179)" stroke-linejoin="round" d="M 13787,7195 L 13787,7045"/>
 <path fill="none" stroke="rgb(179,179,179)" stroke-linejoin="round" d="M 13787,7195 L 13787,7045"/>
 <path fill="none" stroke="rgb(179,179,179)" stroke-linejoin="round" d="M 13937,7195 L 13937,7045"/>
 <path fill="none" stroke="rgb(179,179,179)" stroke-linejoin="round" d="M 13937,7195 L 13937,7045"/>
 <path fill="none" stroke="rgb(179,179,179)" stroke-linejoin="round" d="M 14086,7195 L 14086,7045"/>
 <path fill="none" stroke="rgb(179,179,179)" stroke-linejoin="round" d="M 14086,7195 L 14086,7045"/>
 <path fill="none" stroke="rgb(179,179,179)" stroke-linejoin="round" d="M 14236,7195 L 14236,7045"/>
 <path fill="none" stroke="rgb(179,179,179)" stroke-linejoin="round" d="M 14236,7195 L 14236,7045"/>
 <path fill="none" stroke="rgb(179,179,179)" stroke-linejoin="round" d="M 14385,7195 L 14385,7045"/>
 <path fill="none" stroke="rgb(179,179,179)" stroke-linejoin="round" d="M 14385,7195 L 14385,7045"/>
 <path fill="none" stroke="rgb(179,179,179)" stroke-linejoin="round" d="M 14534,7195 L 14534,7045"/>
 <path fill="none" stroke="rgb(179,179,179)" stroke-linejoin="round" d="M 14534,7195 L 14534,7045"/>
 <path fill="none" stroke="rgb(179,179,179)" stroke-linejoin="round" d="M 14684,7195 L 14684,7045"/>
 <path fill="none" stroke="rgb(179,179,179)" stroke-linejoin="round" d="M 14684,7195 L 14684,7045"/>
 <path fill="none" stroke="rgb(179,179,179)" stroke-linejoin="round" d="M 14833,7195 L 14833,7045"/>
 <path fill="none" stroke="rgb(179,179,179)" stroke-linejoin="round" d="M 14833,7195 L 14833,7045"/>
 <path fill="none" stroke="rgb(179,179,179)" stroke-linejoin="round" d="M 14982,7195 L 14982,7045"/>
 <path fill="none" stroke="rgb(179,179,179)" stroke-linejoin="round" d="M 14982,7195 L 14982,7045"/>
 <path fill="none" stroke="rgb(179,179,179)" stroke-linejoin="round" d="M 15132,7195 L 15132,7045"/>
 <path fill="none" stroke="rgb(179,179,179)" stroke-linejoin="round" d="M 15132,7195 L 15132,7045"/>
 <path fill="none" stroke="rgb(179,179,179)" stroke-linejoin="round" d="M 15281,7195 L 15281,7045"/>
 <path fill="none" stroke="rgb(179,179,179)" stroke-linejoin="round" d="M 15281,7195 L 15281,7045"/>
 <path fill="none" stroke="rgb(179,179,179)" stroke-linejoin="round" d="M 15430,7195 L 15430,7045"/>
 <path fill="none" stroke="rgb(179,179,179)" stroke-linejoin="round" d="M 15430,7195 L 15430,7045"/>
 <path fill="none" stroke="rgb(179,179,179)" stroke-linejoin="round" d="M 2138,7045 L 15430,7045"/>
 <path fill="none" stroke="rgb(179,179,179)" stroke-linejoin="round" d="M 1988,7045 L 2138,7045"/>
 <path fill="none" stroke="rgb(179,179,179)" stroke-linejoin="round" d="M 1988,7045 L 2138,7045"/>
 <path fill="none" stroke="rgb(179,179,179)" stroke-linejoin="round" d="M 1988,6248 L 2138,6248"/>
 <path fill="none" stroke="rgb(179,179,179)" stroke-linejoin="round" d="M 1988,6248 L 2138,6248"/>
 <path fill="none" stroke="rgb(179,179,179)" stroke-linejoin="round" d="M 1988,5452 L 2138,5452"/>
 <path fill="none" stroke="rgb(179,179,179)" stroke-linejoin="round" d="M 1988,5452 L 2138,5452"/>
 <path fill="none" stroke="rgb(179,179,179)" stroke-linejoin="round" d="M 1988,4656 L 2138,4656"/>
 <path fill="none" stroke="rgb(179,179,179)" stroke-linejoin="round" d="M 1988,4656 L 2138,4656"/>
 <path fill="none" stroke="rgb(179,179,179)" stroke-linejoin="round" d="M 1988,3861 L 2138,3861"/>
 <path fill="none" stroke="rgb(179,179,179)" stroke-linejoin="round" d="M 1988,3861 L 2138,3861"/>
 <path fill="none" stroke="rgb(179,179,179)" stroke-linejoin="round" d="M 1988,3065 L 2138,3065"/>
 <path fill="none" stroke="rgb(179,179,179)" stroke-linejoin="round" d="M 1988,3065 L 2138,3065"/>
 <path fill="none" stroke="rgb(179,179,179)" stroke-linejoin="round" d="M 1988,2269 L 2138,2269"/>
 <path fill="none" stroke="rgb(179,179,179)" stroke-linejoin="round" d="M 1988,2269 L 2138,2269"/>
 <path fill="none" stroke="rgb(179,179,179)" stroke-linejoin="round" d="M 1988,1473 L 2138,1473"/>
 <path fill="none" stroke="rgb(179,179,179)" stroke-linejoin="round" d="M 1988,1473 L 2138,1473"/>
 <path fill="none" stroke="rgb(179,179,179)" stroke-linejoin="round" d="M 2138,7045 L 2138,1473"/>
 <path fill="rgb(0,69,134)" stroke="none" d="M 15318,7045 L 15393,7045 15393,5337 15318,5337 15318,7045 Z"/>
 <path fill="rgb(0,69,134)" stroke="none" d="M 15020,7045 L 15094,7045 15094,5886 15020,5886 15020,7045 Z"/>
 <path fill="rgb(0,69,134)" stroke="none" d="M 14721,7045 L 14796,7045 14796,5094 14721,5094 14721,7045 Z"/>
 <path fill="rgb(0,69,134)" stroke="none" d="M 14422,7045 L 14497,7045 14497,6061 14422,6061 14422,7045 Z"/>
 <path fill="rgb(0,69,134)" stroke="none" d="M 14124,7045 L 14198,7045 14198,5994 14124,5994 14124,7045 Z"/>
 <path fill="rgb(0,69,134)" stroke="none" d="M 13825,7045 L 13899,7045 13899,6013 13825,6013 13825,7045 Z"/>
 <path fill="rgb(0,69,134)" stroke="none" d="M 13526,7045 L 13601,7045 13601,5850 13526,5850 13526,7045 Z"/>
 <path fill="rgb(0,69,134)" stroke="none" d="M 13227,7045 L 13302,7045 13302,5886 13227,5886 13227,7045 Z"/>
 <path fill="rgb(0,69,134)" stroke="none" d="M 12929,7045 L 13003,7045 13003,5197 12929,5197 12929,7045 Z"/>
 <path fill="rgb(0,69,134)" stroke="none" d="M 12630,7045 L 12704,7045 12704,5862 12630,5862 12630,7045 Z"/>
 <path fill="rgb(0,69,134)" stroke="none" d="M 12331,7045 L 12406,7045 12406,5743 12331,5743 12331,7045 Z"/>
 <path fill="rgb(0,69,134)" stroke="none" d="M 12032,7045 L 12107,7045 12107,5412 12032,5412 12032,7045 Z"/>
 <path fill="rgb(0,69,134)" stroke="none" d="M 11734,7045 L 11808,7045 11808,6002 11734,6002 11734,7045 Z"/>
 <path fill="rgb(0,69,134)" stroke="none" d="M 11435,7045 L 11510,7045 11510,5325 11435,5325 11435,7045 Z"/>
 <path fill="rgb(0,69,134)" stroke="none" d="M 11136,7045 L 11211,7045 11211,5532 11136,5532 11136,7045 Z"/>
 <path fill="rgb(0,69,134)" stroke="none" d="M 10837,7045 L 10912,7045 10912,5962 10837,5962 10837,7045 Z"/>
 <path fill="rgb(0,69,134)" stroke="none" d="M 10539,7045 L 10613,7045 10613,5002 10539,5002 10539,7045 Z"/>
 <path fill="rgb(0,69,134)" stroke="none" d="M 10240,7045 L 10315,7045 10315,5739 10240,5739 10240,7045 Z"/>
 <path fill="rgb(0,69,134)" stroke="none" d="M 9941,7045 L 10016,7045 10016,5878 9941,5878 9941,7045 Z"/>
 <path fill="rgb(0,69,134)" stroke="none" d="M 9642,7045 L 9717,7045 9717,5500 9642,5500 9642,7045 Z"/>
 <path fill="rgb(0,69,134)" stroke="none" d="M 9344,7045 L 9418,7045 9418,6045 9344,6045 9344,7045 Z"/>
 <path fill="rgb(0,69,134)" stroke="none" d="M 9045,7045 L 9120,7045 9120,5870 9045,5870 9045,7045 Z"/>
 <path fill="rgb(0,69,134)" stroke="none" d="M 8746,7045 L 8821,7045 8821,6085 8746,6085 8746,7045 Z"/>
 <path fill="rgb(0,69,134)" stroke="none" d="M 8447,7045 L 8522,7045 8522,4426 8447,4426 8447,7045 Z"/>
 <path fill="rgb(0,69,134)" stroke="none" d="M 8149,7045 L 8223,7045 8223,5814 8149,5814 8149,7045 Z"/>
 <path fill="rgb(0,69,134)" stroke="none" d="M 7851,7045 L 7926,7045 7926,5568 7851,5568 7851,7045 Z"/>
 <path fill="rgb(0,69,134)" stroke="none" d="M 7552,7045 L 7627,7045 7627,5938 7552,5938 7552,7045 Z"/>
 <path fill="rgb(0,69,134)" stroke="none" d="M 7253,7045 L 7328,7045 7328,3857 7253,3857 7253,7045 Z"/>
 <path fill="rgb(0,69,134)" stroke="none" d="M 6955,7045 L 7029,7045 7029,5850 6955,5850 6955,7045 Z"/>
 <path fill="rgb(0,69,134)" stroke="none" d="M 6656,7045 L 6731,7045 6731,5209 6656,5209 6656,7045 Z"/>
 <path fill="rgb(0,69,134)" stroke="none" d="M 6357,7045 L 6432,7045 6432,5731 6357,5731 6357,7045 Z"/>
 <path fill="rgb(0,69,134)" stroke="none" d="M 6058,7045 L 6133,7045 6133,1902 6058,1902 6058,7045 Z"/>
 <path fill="rgb(0,69,134)" stroke="none" d="M 5760,7045 L 5834,7045 5834,5946 5760,5946 5760,7045 Z"/>
 <path fill="rgb(0,69,134)" stroke="none" d="M 5461,7045 L 5536,7045 5536,5946 5461,5946 5461,7045 Z"/>
 <path fill="rgb(0,69,134)" stroke="none" d="M 5162,7045 L 5237,7045 5237,5480 5162,5480 5162,7045 Z"/>
 <path fill="rgb(0,69,134)" stroke="none" d="M 4864,7045 L 4938,7045 4938,5962 4864,5962 4864,7045 Z"/>
 <path fill="rgb(0,69,134)" stroke="none" d="M 4565,7045 L 4639,7045 4639,4875 4565,4875 4565,7045 Z"/>
 <path fill="rgb(0,69,134)" stroke="none" d="M 4266,7045 L 4341,7045 4341,5313 4266,5313 4266,7045 Z"/>
 <path fill="rgb(0,69,134)" stroke="none" d="M 3967,7045 L 4042,7045 4042,5114 3967,5114 3967,7045 Z"/>
 <path fill="rgb(0,69,134)" stroke="none" d="M 3669,7045 L 3743,7045 3743,5906 3669,5906 3669,7045 Z"/>
 <path fill="rgb(0,69,134)" stroke="none" d="M 3370,7045 L 3444,7045 3444,6041 3370,6041 3370,7045 Z"/>
 <path fill="rgb(0,69,134)" stroke="none" d="M 3071,7045 L 3146,7045 3146,6006 3071,6006 3071,7045 Z"/>
 <path fill="rgb(0,69,134)" stroke="none" d="M 2772,7045 L 2847,7045 2847,5715 2772,5715 2772,7045 Z"/>
 <path fill="rgb(0,69,134)" stroke="none" d="M 2474,7045 L 2548,7045 2548,5894 2474,5894 2474,7045 Z"/>
 <path fill="rgb(0,69,134)" stroke="none" d="M 2175,7045 L 2250,7045 2250,4716 2175,4716 2175,7045 Z"/>
 <text class="TextShape" transform="translate(2164,7652) rotate(-44.9) translate(-2164,-7652)"><tspan class="TextParagraph" font-family="Liberation Sans, sans-serif" font-size="353px" font-weight="400"><tspan class="TextPosition" x="2164" y="7652"><tspan fill="rgb(0,0,0)" stroke="none">1</tspan></tspan></tspan></text>
 <text class="TextShape" transform="translate(2762,7652) rotate(-44.9) translate(-2762,-7652)"><tspan class="TextParagraph" font-family="Liberation Sans, sans-serif" font-size="353px" font-weight="400"><tspan class="TextPosition" x="2762" y="7652"><tspan fill="rgb(0,0,0)" stroke="none">5</tspan></tspan></tspan></text>
 <text class="TextShape" transform="translate(3359,7652) rotate(-44.9) translate(-3359,-7652)"><tspan class="TextParagraph" font-family="Liberation Sans, sans-serif" font-size="353px" font-weight="400"><tspan class="TextPosition" x="3359" y="7652"><tspan fill="rgb(0,0,0)" stroke="none">9</tspan></tspan></tspan></text>
 <text class="TextShape" transform="translate(3826,7782) rotate(-44.9) translate(-3826,-7782)"><tspan class="TextParagraph" font-family="Liberation Sans, sans-serif" font-size="353px" font-weight="400"><tspan class="TextPosition" x="3826" y="7782"><tspan fill="rgb(0,0,0)" stroke="none">13</tspan></tspan></tspan></text>
 <text class="TextShape" transform="translate(4423,7782) rotate(-44.9) translate(-4423,-7782)"><tspan class="TextParagraph" font-family="Liberation Sans, sans-serif" font-size="353px" font-weight="400"><tspan class="TextPosition" x="4423" y="7782"><tspan fill="rgb(0,0,0)" stroke="none">17</tspan></tspan></tspan></text>
 <text class="TextShape" transform="translate(5021,7782) rotate(-44.9) translate(-5021,-7782)"><tspan class="TextParagraph" font-family="Liberation Sans, sans-serif" font-size="353px" font-weight="400"><tspan class="TextPosition" x="5021" y="7782"><tspan fill="rgb(0,0,0)" stroke="none">21</tspan></tspan></tspan></text>
 <text class="TextShape" transform="translate(5618,7782) rotate(-44.9) translate(-5618,-7782)"><tspan class="TextParagraph" font-family="Liberation Sans, sans-serif" font-size="353px" font-weight="400"><tspan class="TextPosition" x="5618" y="7782"><tspan fill="rgb(0,0,0)" stroke="none">25</tspan></tspan></tspan></text>
 <text class="TextShape" transform="translate(6216,7782) rotate(-44.9) translate(-6216,-7782)"><tspan class="TextParagraph" font-family="Liberation Sans, sans-serif" font-size="353px" font-weight="400"><tspan class="TextPosition" x="6216" y="7782"><tspan fill="rgb(0,0,0)" stroke="none">29</tspan></tspan></tspan></text>
 <text class="TextShape" transform="translate(6813,7782) rotate(-44.9) translate(-6813,-7782)"><tspan class="TextParagraph" font-family="Liberation Sans, sans-serif" font-size="353px" font-weight="400"><tspan class="TextPosition" x="6813" y="7782"><tspan fill="rgb(0,0,0)" stroke="none">33</tspan></tspan></tspan></text>
 <text class="TextShape" transform="translate(7411,7782) rotate(-44.9) translate(-7411,-7782)"><tspan class="TextParagraph" font-family="Liberation Sans, sans-serif" font-size="353px" font-weight="400"><tspan class="TextPosition" x="7411" y="7782"><tspan fill="rgb(0,0,0)" stroke="none">37</tspan></tspan></tspan></text>
 <text class="TextShape" transform="translate(8008,7782) rotate(-44.9) translate(-8008,-7782)"><tspan class="TextParagraph" font-family="Liberation Sans, sans-serif" font-size="353px" font-weight="400"><tspan class="TextPosition" x="8008" y="7782"><tspan fill="rgb(0,0,0)" stroke="none">41</tspan></tspan></tspan></text>
 <text class="TextShape" transform="translate(8606,7782) rotate(-44.9) translate(-8606,-7782)"><tspan class="TextParagraph" font-family="Liberation Sans, sans-serif" font-size="353px" font-weight="400"><tspan class="TextPosition" x="8606" y="7782"><tspan fill="rgb(0,0,0)" stroke="none">45</tspan></tspan></tspan></text>
 <text class="TextShape" transform="translate(9203,7782) rotate(-44.9) translate(-9203,-7782)"><tspan class="TextParagraph" font-family="Liberation Sans, sans-serif" font-size="353px" font-weight="400"><tspan class="TextPosition" x="9203" y="7782"><tspan fill="rgb(0,0,0)" stroke="none">49</tspan></tspan></tspan></text>
 <text class="TextShape" transform="translate(9800,7782) rotate(-44.9) translate(-9800,-7782)"><tspan class="TextParagraph" font-family="Liberation Sans, sans-serif" font-size="353px" font-weight="400"><tspan class="TextPosition" x="9800" y="7782"><tspan fill="rgb(0,0,0)" stroke="none">53</tspan></tspan></tspan></text>
 <text class="TextShape" transform="translate(10398,7782) rotate(-44.9) translate(-10398,-7782)"><tspan class="TextParagraph" font-family="Liberation Sans, sans-serif" font-size="353px" font-weight="400"><tspan class="TextPosition" x="10398" y="7782"><tspan fill="rgb(0,0,0)" stroke="none">57</tspan></tspan></tspan></text>
 <text class="TextShape" transform="translate(10995,7782) rotate(-44.9) translate(-10995,-7782)"><tspan class="TextParagraph" font-family="Liberation Sans, sans-serif" font-size="353px" font-weight="400"><tspan class="TextPosition" x="10995" y="7782"><tspan fill="rgb(0,0,0)" stroke="none">61</tspan></tspan></tspan></text>
 <text class="TextShape" transform="translate(11592,7782) rotate(-44.9) translate(-11592,-7782)"><tspan class="TextParagraph" font-family="Liberation Sans, sans-serif" font-size="353px" font-weight="400"><tspan class="TextPosition" x="11592" y="7782"><tspan fill="rgb(0,0,0)" stroke="none">65</tspan></tspan></tspan></text>
 <text class="TextShape" transform="translate(12189,7782) rotate(-44.9) translate(-12189,-7782)"><tspan class="TextParagraph" font-family="Liberation Sans, sans-serif" font-size="353px" font-weight="400"><tspan class="TextPosition" x="12189" y="7782"><tspan fill="rgb(0,0,0)" stroke="none">69</tspan></tspan></tspan></text>
 <text class="TextShape" transform="translate(12787,7782) rotate(-44.9) translate(-12787,-7782)"><tspan class="TextParagraph" font-family="Liberation Sans, sans-serif" font-size="353px" font-weight="400"><tspan class="TextPosition" x="12787" y="7782"><tspan fill="rgb(0,0,0)" stroke="none">73</tspan></tspan></tspan></text>
 <text class="TextShape" transform="translate(13384,7782) rotate(-44.9) translate(-13384,-7782)"><tspan class="TextParagraph" font-family="Liberation Sans, sans-serif" font-size="353px" font-weight="400"><tspan class="TextPosition" x="13384" y="7782"><tspan fill="rgb(0,0,0)" stroke="none">77</tspan></tspan></tspan></text>
 <text class="TextShape" transform="translate(13982,7782) rotate(-44.9) translate(-13982,-7782)"><tspan class="TextParagraph" font-family="Liberation Sans, sans-serif" font-size="353px" font-weight="400"><tspan class="TextPosition" x="13982" y="7782"><tspan fill="rgb(0,0,0)" stroke="none">81</tspan></tspan></tspan></text>
 <text class="TextShape" transform="translate(14579,7782) rotate(-44.9) translate(-14579,-7782)"><tspan class="TextParagraph" font-family="Liberation Sans, sans-serif" font-size="353px" font-weight="400"><tspan class="TextPosition" x="14579" y="7782"><tspan fill="rgb(0,0,0)" stroke="none">85</tspan></tspan></tspan></text>
 <text class="TextShape" transform="translate(15177,7782) rotate(-44.9) translate(-15177,-7782)"><tspan class="TextParagraph" font-family="Liberation Sans, sans-serif" font-size="353px" font-weight="400"><tspan class="TextPosition" x="15177" y="7782"><tspan fill="rgb(0,0,0)" stroke="none">89</tspan></tspan></tspan></text>
 <text class="TextShape"><tspan class="TextParagraph" font-family="Liberation Sans, sans-serif" font-size="353px" font-weight="400"><tspan class="TextPosition" x="1703" y="7166"><tspan fill="rgb(0,0,0)" stroke="none">0</tspan></tspan></tspan></text>
 <text class="TextShape"><tspan class="TextParagraph" font-family="Liberation Sans, sans-serif" font-size="353px" font-weight="400"><tspan class="TextPosition" x="1332" y="6369"><tspan fill="rgb(0,0,0)" stroke="none">200</tspan></tspan></tspan></text>
 <text class="TextShape"><tspan class="TextParagraph" font-family="Liberation Sans, sans-serif" font-size="353px" font-weight="400"><tspan class="TextPosition" x="1332" y="5573"><tspan fill="rgb(0,0,0)" stroke="none">400</tspan></tspan></tspan></text>
 <text class="TextShape"><tspan class="TextParagraph" font-family="Liberation Sans, sans-serif" font-size="353px" font-weight="400"><tspan class="TextPosition" x="1332" y="4777"><tspan fill="rgb(0,0,0)" stroke="none">600</tspan></tspan></tspan></text>
 <text class="TextShape"><tspan class="TextParagraph" font-family="Liberation Sans, sans-serif" font-size="353px" font-weight="400"><tspan class="TextPosition" x="1332" y="3981"><tspan fill="rgb(0,0,0)" stroke="none">800</tspan></tspan></tspan></text>
 <text class="TextShape"><tspan class="TextParagraph" font-family="Liberation Sans, sans-serif" font-size="353px" font-weight="400"><tspan class="TextPosition" x="1147" y="3185"><tspan fill="rgb(0,0,0)" stroke="none">1000</tspan></tspan></tspan></text>
 <text class="TextShape"><tspan class="TextParagraph" font-family="Liberation Sans, sans-serif" font-size="353px" font-weight="400"><tspan class="TextPosition" x="1147" y="2389"><tspan fill="rgb(0,0,0)" stroke="none">1200</tspan></tspan></tspan></text>
 <text class="TextShape"><tspan class="TextParagraph" font-family="Liberation Sans, sans-serif" font-size="353px" font-weight="400"><tspan class="TextPosition" x="1147" y="1593"><tspan fill="rgb(0,0,0)" stroke="none">1400</tspan></tspan></tspan></text>
 <text class="TextShape"><tspan class="TextParagraph" font-family="Liberation Sans, sans-serif" font-size="459px" font-weight="400"><tspan class="TextPosition" x="4375" y="851"><tspan fill="rgb(0,0,0)" stroke="none">Cached Certificate Positive Override</tspan></tspan></tspan></text>
 <text class="TextShape"><tspan class="TextParagraph" font-family="Liberation Sans, sans-serif" font-size="318px" font-weight="400"><tspan class="TextPosition" x="7923" y="8405"><tspan fill="rgb(0,0,0)" stroke="none">Iteration</tspan></tspan></tspan></text>
 <text class="TextShape" transform="translate(837,6792) rotate(-90) translate(-837,-6792)"><tspan class="TextParagraph" font-family="Liberation Sans, sans-serif" font-size="318px" font-weight="400"><tspan class="TextPosition" x="837" y="6792"><tspan fill="rgb(0,0,0)" stroke="none">Added Latency (microseconds)</tspan></tspan></tspan></text>
</svg>