<?xml version="1.0" encoding="UTF-8"?>
<!DOCTYPE svg PUBLIC "-//W3C//DTD SVG 1.1//EN" "http://www.w3.org/Graphics/SVG/1.1/DTD/svg11.dtd">
<svg width="160mm" height="90mm" viewBox="0 0 16000 9000" version="1.1" xmlns="http://www.w3.org/2000/svg" stroke-width="28.222" stroke-linejoin="round" xml:space="preserve">
 <path fill="rgb(255,255,255)" stroke="none" d="M 8000,8999 L 0,8999 0,0 15999,0 15999,8999 8000,8999 Z"/>
 <path fill="none" stroke="rgb(179,179,179)" stroke-linejoin="round" d="M 9001,7046 L 2323,7046 2323,1474 15679,1474 15679,7046 9001,7046 Z"/>
 <path fill="none" stroke="rgb(179,179,179)" stroke-linejoin="round" d="M 15679,7045 L 2323,7045"/>
 <path fill="none" stroke="rgb(179,179,179)" stroke-linejoin="round" d="M 15679,6248 L 2323,6248"/>
 <path fill="none" stroke="rgb(179,179,179)" stroke-linejoin="round" d="M 15679,5452 L 2323,5452"/>
 <path fill="none" stroke="rgb(179,179,179)" stroke-linejoin="round" d="M 15679,4656 L 2323,4656"/>
 <path fill="none" stroke="rgb(179,179,179)" stroke-linejoin="round" d="M 15679,3861 L 2323,3861"/>
 <path fill="none" stroke="rgb(179,179,179)" stroke-linejoin="round" d="M 15679,3065 L 2323,3065"/>
 <path fill="none" stroke="rgb(179,179,179)" stroke-linejoin="round" d="M 15679,2269 L 2323,2269"/>
 <path fill="none" stroke="rgb(179,179,179)" stroke-linejoin="round" d="M 15679,1473 L 2323,1473"/>
 <path fill="none" stroke="rgb(179,179,179)" stroke-linejoin="round" d="M 2323,7195 L 2323,7045"/>
 <path fill="none" stroke="rgb(179,179,179)" stroke-linejoin="round" d="M 2323,7195 L 2323,7045"/>
 <path fill="none" stroke="rgb(179,179,179)" stroke-linejoin="round" d="M 2471,7195 L 2471,7045"/>
 <path fill="none" stroke="rgb(179,179,179)" stroke-linejoin="round" d="M 2471,7195 L 2471,7045"/>
 <path fill="none" stroke="rgb(179,179,179)" stroke-linejoin="round" d="M 2619,7195 L 2619,7045"/>
 <path fill="none" stroke="rgb(179,179,179)" stroke-linejoin="round" d="M 2619,7195 L 2619,7045"/>
 <path fill="none" stroke="rgb(179,179,179)" stroke-linejoin="round" d="M 2768,7195 L 2768,7045"/>
 <path fill="none" stroke="rgb(179,179,179)" stroke-linejoin="round" d="M 2768,7195 L 2768,7045"/>
 <path fill="none" stroke="rgb(179,179,179)" stroke-linejoin="round" d="M 2916,7195 L 2916,7045"/>
 <path fill="none" stroke="rgb(179,179,179)" stroke-linejoin="round" d="M 2916,7195 L 2916,7045"/>
 <path fill="none" stroke="rgb(179,179,179)" stroke-linejoin="round" d="M 3065,7195 L 3065,7045"/>
 <path fill="none" stroke="rgb(179,179,179)" stroke-linejoin="round" d="M 3065,7195 L 3065,7045"/>
 <path fill="none" stroke="rgb(179,179,179)" stroke-linejoin="round" d="M 3213,7195 L 3213,7045"/>
 <path fill="none" stroke="rgb(179,179,179)" stroke-linejoin="round" d="M 3213,7195 L 3213,7045"/>
 <path fill="none" stroke="rgb(179,179,179)" stroke-linejoin="round" d="M 3361,7195 L 3361,7045"/>
 <path fill="none" stroke="rgb(179,179,179)" stroke-linejoin="round" d="M 3361,7195 L 3361,7045"/>
 <path fill="none" stroke="rgb(179,179,179)" stroke-linejoin="round" d="M 3510,7195 L 3510,7045"/>
 <path fill="none" stroke="rgb(179,179,179)" stroke-linejoin="round" d="M 3510,7195 L 3510,7045"/>
 <path fill="none" stroke="rgb(179,179,179)" stroke-linejoin="round" d="M 3658,7195 L 3658,7045"/>
 <path fill="none" stroke="rgb(179,179,179)" stroke-linejoin="round" d="M 3658,7195 L 3658,7045"/>
 <path fill="none" stroke="rgb(179,179,179)" stroke-linejoin="round" d="M 3807,7195 L 3807,7045"/>
 <path fill="none" stroke="rgb(179,179,179)" stroke-linejoin="round" d="M 3807,7195 L 3807,7045"/>
 <path fill="none" stroke="rgb(179,179,179)" stroke-linejoin="round" d="M 3955,7195 L 3955,7045"/>
 <path fill="none" stroke="rgb(179,179,179)" stroke-linejoin="round" d="M 3955,7195 L 3955,7045"/>
 <path fill="none" stroke="rgb(179,179,179)" stroke-linejoin="round" d="M 4103,7195 L 4103,7045"/>
 <path fill="none" stroke="rgb(179,179,179)" stroke-linejoin="round" d="M 4103,7195 L 4103,7045"/>
 <path fill="none" stroke="rgb(179,179,179)" stroke-linejoin="round" d="M 4252,7195 L 4252,7045"/>
 <path fill="none" stroke="rgb(179,179,179)" stroke-linejoin="round" d="M 4252,7195 L 4252,7045"/>
 <path fill="none" stroke="rgb(179,179,179)" stroke-linejoin="round" d="M 4400,7195 L 4400,7045"/>
 <path fill="none" stroke="rgb(179,179,179)" stroke-linejoin="round" d="M 4400,7195 L 4400,7045"/>
 <path fill="none" stroke="rgb(179,179,179)" stroke-linejoin="round" d="M 4549,7195 L 4549,7045"/>
 <path fill="none" stroke="rgb(179,179,179)" stroke-linejoin="round" d="M 4549,7195 L 4549,7045"/>
 <path fill="none" stroke="rgb(179,179,179)" stroke-linejoin="round" d="M 4697,7195 L 4697,7045"/>
 <path fill="none" stroke="rgb(179,179,179)" stroke-linejoin="round" d="M 4697,7195 L 4697,7045"/>
 <path fill="none" stroke="rgb(179,179,179)" stroke-linejoin="round" d="M 4845,7195 L 4845,7045"/>
 <path fill="none" stroke="rgb(179,179,179)" stroke-linejoin="round" d="M 4845,7195 L 4845,7045"/>
 <path fill="none" stroke="rgb(179,179,179)" stroke-linejoin="round" d="M 4994,7195 L 4994,7045"/>
 <path fill="none" stroke="rgb(179,179,179)" stroke-linejoin="round" d="M 4994,7195 L 4994,7045"/>
 <path fill="none" stroke="rgb(179,179,179)" stroke-linejoin="round" d="M 5142,7195 L 5142,7045"/>
 <path fill="none" stroke="rgb(179,179,179)" stroke-linejoin="round" d="M 5142,7195 L 5142,7045"/>
 <path fill="none" stroke="rgb(179,179,179)" stroke-linejoin="round" d="M 5291,7195 L 5291,7045"/>
 <path fill="none" stroke="rgb(179,179,179)" stroke-linejoin="round" d="M 5291,7195 L 5291,7045"/>
 <path fill="none" stroke="rgb(179,179,179)" stroke-linejoin="round" d="M 5439,7195 L 5439,7045"/>
 <path fill="none" stroke="rgb(179,179,179)" stroke-linejoin="round" d="M 5439,7195 L 5439,7045"/>
 <path fill="none" stroke="rgb(179,179,179)" stroke-linejoin="round" d="M 5588,7195 L 5588,7045"/>
 <path fill="none" stroke="rgb(179,179,179)" stroke-linejoin="round" d="M 5588,7195 L 5588,7045"/>
 <path fill="none" stroke="rgb(179,179,179)" stroke-linejoin="round" d="M 5736,7195 L 5736,7045"/>
 <path fill="none" stroke="rgb(179,179,179)" stroke-linejoin="round" d="M 5736,7195 L 5736,7045"/>
 <path fill="none" stroke="rgb(179,179,179)" stroke-linejoin="round" d="M 5884,7195 L 5884,7045"/>
 <path fill="none" stroke="rgb(179,179,179)" stroke-linejoin="round" d="M 5884,7195 L 5884,7045"/>
 <path fill="none" stroke="rgb(179,179,179)" stroke-linejoin="round" d="M 6033,7195 L 6033,7045"/>
 <path fill="none" stroke="rgb(179,179,179)" stroke-linejoin="round" d="M 6033,7195 L 6033,7045"/>
 <path fill="none" stroke="rgb(179,179,179)" stroke-linejoin="round" d="M 6181,7195 L 6181,7045"/>
 <path fill="none" stroke="rgb(179,179,179)" stroke-linejoin="round" d="M 6181,7195 L 6181,7045"/>
 <path fill="none" stroke="rgb(179,179,179)" stroke-linejoin="round" d="M 6330,7195 L 6330,7045"/>
 <path fill="none" stroke="rgb(179,179,179)" stroke-linejoin="round" d="M 6330,7195 L 6330,7045"/>
 <path fill="none" stroke="rgb(179,179,179)" stroke-linejoin="round" d="M 6478,7195 L 6478,7045"/>
 <path fill="none" stroke="rgb(179,179,179)" stroke-linejoin="round" d="M 6478,7195 L 6478,7045"/>
 <path fill="none" stroke="rgb(179,179,179)" stroke-linejoin="round" d="M 6626,7195 L 6626,7045"/>
 <path fill="none" stroke="rgb(179,179,179)" stroke-linejoin="round" d="M 6626,7195 L 6626,7045"/>
 <path fill="none" stroke="rgb(179,179,179)" stroke-linejoin="round" d="M 6775,7195 L 6775,7045"/>
 <path fill="none" stroke="rgb(179,179,179)" stroke-linejoin="round" d="M 6775,7195 L 6775,7045"/>
 <path fill="none" stroke="rgb(179,179,179)" stroke-linejoin="round" d="M 6923,7195 L 6923,7045"/>
 <path fill="none" stroke="rgb(179,179,179)" stroke-linejoin="round" d="M 6923,7195 L 6923,7045"/>
 <path fill="none" stroke="rgb(179,179,179)" stroke-linejoin="round" d="M 7072,7195 L 7072,7045"/>
 <path fill="none" stroke="rgb(179,179,179)" stroke-linejoin="round" d="M 7072,7195 L 7072,7045"/>
 <path fill="none" stroke="rgb(179,179,179)" stroke-linejoin="round" d="M 7220,7195 L 7220,7045"/>
 <path fill="none" stroke="rgb(179,179,179)" stroke-linejoin="round" d="M 7220,7195 L 7220,7045"/>
 <path fill="none" stroke="rgb(179,179,179)" stroke-linejoin="round" d="M 7368,7195 L 7368,7045"/>
 <path fill="none" stroke="rgb(179,179,179)" stroke-linejoin="round" d="M 7368,7195 L 7368,7045"/>
 <path fill="none" stroke="rgb(179,179,179)" stroke-linejoin="round" d="M 7517,7195 L 7517,7045"/>
 <path fill="none" stroke="rgb(179,179,179)" stroke-linejoin="round" d="M 7517,7195 L 7517,7045"/>
 <path fill="none" stroke="rgb(179,179,179)" stroke-linejoin="round" d="M 7665,7195 L 7665,7045"/>
 <path fill="none" stroke="rgb(179,179,179)" stroke-linejoin="round" d="M 7665,7195 L 7665,7045"/>
 <path fill="none" stroke="rgb(179,179,179)" stroke-linejoin="round" d="M 7814,7195 L 7814,7045"/>
 <path fill="none" stroke="rgb(179,179,179)" stroke-linejoin="round" d="M 7814,7195 L 7814,7045"/>
 <path fill="none" stroke="rgb(179,179,179)" stroke-linejoin="round" d="M 7962,7195 L 7962,7045"/>
 <path fill="none" stroke="rgb(179,179,179)" stroke-linejoin="round" d="M 7962,7195 L 7962,7045"/>
 <path fill="none" stroke="rgb(179,179,179)" stroke-linejoin="round" d="M 8110,7195 L 8110,7045"/>
 <path fill="none" stroke="rgb(179,179,179)" stroke-linejoin="round" d="M 8110,7195 L 8110,7045"/>
 <path fill="none" stroke="rgb(179,179,179)" stroke-linejoin="round" d="M 8258,7195 L 8258,7045"/>
 <path fill="none" stroke="rgb(179,179,179)" stroke-linejoin="round" d="M 8258,7195 L 8258,7045"/>
 <path fill="none" stroke="rgb(179,179,179)" stroke-linejoin="round" d="M 8406,7195 L 8406,7045"/>
 <path fill="none" stroke="rgb(179,179,179)" stroke-linejoin="round" d="M 8406,7195 L 8406,7045"/>
 <path fill="none" stroke="rgb(179,179,179)" stroke-linejoin="round" d="M 8555,7195 L 8555,7045"/>
 <path fill="none" stroke="rgb(179,179,179)" stroke-linejoin="round" d="M 8555,7195 L 8555,7045"/>
 <path fill="none" stroke="rgb(179,179,179)" stroke-linejoin="round" d="M 8703,7195 L 8703,7045"/>
 <path fill="none" stroke="rgb(179,179,179)" stroke-linejoin="round" d="M 8703,7195 L 8703,7045"/>
 <path fill="none" stroke="rgb(179,179,179)" stroke-linejoin="round" d="M 8852,7195 L 8852,7045"/>
 <path fill="none" stroke="rgb(179,179,179)" stroke-linejoin="round" d="M 8852,7195 L 8852,7045"/>
 <path fill="none" stroke="rgb(179,179,179)" stroke-linejoin="round" d="M 9000,7195 L 9000,7045"/>
 <path fill="none" stroke="rgb(179,179,179)" stroke-linejoin="round" d="M 9000,7195 L 9000,7045"/>
 <path fill="none" stroke="rgb(179,179,179)" stroke-linejoin="round" d="M 9148,7195 L 9148,7045"/>
 <path fill="none" stroke="rgb(179,179,179)" stroke-linejoin="round" d="M 9148,7195 L 9148,7045"/>
 <path fill="none" stroke="rgb(179,179,179)" stroke-linejoin="round" d="M 9297,7195 L 9297,7045"/>
 <path fill="none" stroke="rgb(179,179,179)" stroke-linejoin="round" d="M 9297,7195 L 9297,7045"/>
 <path fill="none" stroke="rgb(179,179,179)" stroke-linejoin="round" d="M 9445,7195 L 9445,7045"/>
 <path fill="none" stroke="rgb(179,179,179)" stroke-linejoin="round" d="M 9445,7195 L 9445,7045"/>
 <path fill="none" stroke="rgb(179,179,179)" stroke-linejoin="round" d="M 9594,7195 L 9594,7045"/>
 <path fill="none" stroke="rgb(179,179,179)" stroke-linejoin="round" d="M 9594,7195 L 9594,7045"/>
 <path fill="none" stroke="rgb(179,179,179)" stroke-linejoin="round" d="M 9742,7195 L 9742,7045"/>
 <path fill="none" stroke="rgb(179,179,179)" stroke-linejoin="round" d="M 9742,7195 L 9742,7045"/>
 <path fill="none" stroke="rgb(179,179,179)" stroke-linejoin="round" d="M 9890,7195 L 9890,7045"/>
 <path fill="none" stroke="rgb(179,179,179)" stroke-linejoin="round" d="M 9890,7195 L 9890,7045"/>
 <path fill="none" stroke="rgb(179,179,179)" stroke-linejoin="round" d="M 10039,7195 L 10039,7045"/>
 <path fill="none" stroke="rgb(179,179,179)" stroke-linejoin="round" d="M 10039,7195 L 10039,7045"/>
 <path fill="none" stroke="rgb(179,179,179)" stroke-linejoin="round" d="M 10187,7195 L 10187,7045"/>
 <path fill="none" stroke="rgb(179,179,179)" stroke-linejoin="round" d="M 10187,7195 L 10187,7045"/>
 <path fill="none" stroke="rgb(179,179,179)" stroke-linejoin="round" d="M 10336,7195 L 10336,7045"/>
 <path fill="none" stroke="rgb(179,179,179)" stroke-linejoin="round" d="M 10336,7195 L 10336,7045"/>
 <path fill="none" stroke="rgb(179,179,179)" stroke-linejoin="round" d="M 10484,7195 L 10484,7045"/>
 <path fill="none" stroke="rgb(179,179,179)" stroke-linejoin="round" d="M 10484,7195 L 10484,7045"/>
 <path fill="none" stroke="rgb(179,179,179)" stroke-linejoin="round" d="M 10633,7195 L 10633,7045"/>
 <path fill="none" stroke="rgb(179,179,179)" stroke-linejoin="round" d="M 10633,7195 L 10633,7045"/>
 <path fill="none" stroke="rgb(179,179,179)" stroke-linejoin="round" d="M 10781,7195 L 10781,7045"/>
 <path fill="none" stroke="rgb(179,179,179)" stroke-linejoin="round" d="M 10781,7195 L 10781,7045"/>
 <path fill="none" stroke="rgb(179,179,179)" stroke-linejoin="round" d="M 10929,7195 L 10929,7045"/>
 <path fill="none" stroke="rgb(179,179,179)" stroke-linejoin="round" d="M 10929,7195 L 10929,7045"/>
 <path fill="none" stroke="rgb(179,179,179)" stroke-linejoin="round" d="M 11078,7195 L 11078,7045"/>
 <path fill="none" stroke="rgb(179,179,179)" stroke-linejoin="round" d="M 11078,7195 L 11078,7045"/>
 <path fill="none" stroke="rgb(179,179,179)" stroke-linejoin="round" d="M 11226,7195 L 11226,7045"/>
 <path fill="none" stroke="rgb(179,179,179)" stroke-linejoin="round" d="M 11226,7195 L 11226,7045"/>
 <path fill="none" stroke="rgb(179,179,179)" stroke-linejoin="round" d="M 11375,7195 L 11375,7045"/>
 <path fill="none" stroke="rgb(179,179,179)" stroke-linejoin="round" d="M 11375,7195 L 11375,7045"/>
 <path fill="none" stroke="rgb(179,179,179)" stroke-linejoin="round" d="M 11523,7195 L 11523,7045"/>
 <path fill="none" stroke="rgb(179,179,179)" stroke-linejoin="round" d="M 11523,7195 L 11523,7045"/>
 <path fill="none" stroke="rgb(179,179,179)" stroke-linejoin="round" d="M 11671,7195 L 11671,7045"/>
 <path fill="none" stroke="rgb(179,179,179)" stroke-linejoin="round" d="M 11671,7195 L 11671,7045"/>
 <path fill="none" stroke="rgb(179,179,179)" stroke-linejoin="round" d="M 11820,7195 L 11820,7045"/>
 <path fill="none" stroke="rgb(179,179,179)" stroke-linejoin="round" d="M 11820,7195 L 11820,7045"/>
 <path fill="none" stroke="rgb(179,179,179)" stroke-linejoin="round" d="M 11968,7195 L 11968,7045"/>
 <path fill="none" stroke="rgb(179,179,179)" stroke-linejoin="round" d="M 11968,7195 L 11968,7045"/>
 <path fill="none" stroke="rgb(179,179,179)" stroke-linejoin="round" d="M 12117,7195 L 12117,7045"/>
 <path fill="none" stroke="rgb(179,179,179)" stroke-linejoin="round" d="M 12117,7195 L 12117,7045"/>
 <path fill="none" stroke="rgb(179,179,179)" stroke-linejoin="round" d="M 12265,7195 L 12265,7045"/>
 <path fill="none" stroke="rgb(179,179,179)" stroke-linejoin="round" d="M 12265,7195 L 12265,7045"/>
 <path fill="none" stroke="rgb(179,179,179)" stroke-linejoin="round" d="M 12413,7195 L 12413,7045"/>
 <path fill="none" stroke="rgb(179,179,179)" stroke-linejoin="round" d="M 12413,7195 L 12413,7045"/>
 <path fill="none" stroke="rgb(179,179,179)" stroke-linejoin="round" d="M 12562,7195 L 12562,7045"/>
 <path fill="none" stroke="rgb(179,179,179)" stroke-linejoin="round" d="M 12562,7195 L 12562,7045"/>
 <path fill="none" stroke="rgb(179,179,179)" stroke-linejoin="round" d="M 12710,7195 L 12710,7045"/>
 <path fill="none" stroke="rgb(179,179,179)" stroke-linejoin="round" d="M 12710,7195 L 12710,7045"/>
 <path fill="none" stroke="rgb(179,179,179)" stroke-linejoin="round" d="M 12859,7195 L 12859,7045"/>
 <path fill="none" stroke="rgb(179,179,179)" stroke-linejoin="round" d="M 12859,7195 L 12859,7045"/>
 <path fill="none" stroke="rgb(179,179,179)" stroke-linejoin="round" d="M 13007,7195 L 13007,7045"/>
 <path fill="none" stroke="rgb(179,179,179)" stroke-linejoin="round" d="M 13007,7195 L 13007,7045"/>
 <path fill="none" stroke="rgb(179,179,179)" stroke-linejoin="round" d="M 13156,7195 L 13156,7045"/>
 <path fill="none" stroke="rgb(179,179,179)" stroke-linejoin="round" d="M 13156,7195 L 13156,7045"/>
 <path fill="none" stroke="rgb(179,179,179)" stroke-linejoin="round" d="M 13304,7195 L 13304,7045"/>
 <path fill="none" stroke="rgb(179,179,179)" stroke-linejoin="round" d="M 13304,7195 L 13304,7045"/>
 <path fill="none" stroke="rgb(179,179,179)" stroke-linejoin="round" d="M 13452,7195 L 13452,7045"/>
 <path fill="none" stroke="rgb(179,179,179)" stroke-linejoin="round" d="M 13452,7195 L 13452,7045"/>
 <path fill="none" stroke="rgb(179,179,179)" stroke-linejoin="round" d="M 13601,7195 L 13601,7045"/>
 <path fill="none" stroke="rgb(179,179,179)" stroke-linejoin="round" d="M 13601,7195 L 13601,7045"/>
 <path fill="none" stroke="rgb(179,179,179)" stroke-linejoin="round" d="M 13749,7195 L 13749,7045"/>
 <path fill="none" stroke="rgb(179,179,179)" stroke-linejoin="round" d="M 13749,7195 L 13749,7045"/>
 <path fill="none" stroke="rgb(179,179,179)" stroke-linejoin="round" d="M 13898,7195 L 13898,7045"/>
 <path fill="none" stroke="rgb(179,179,179)" stroke-linejoin="round" d="M 13898,7195 L 13898,7045"/>
 <path fill="none" stroke="rgb(179,179,179)" stroke-linejoin="round" d="M 14046,7195 L 14046,7045"/>
 <path fill="none" stroke="rgb(179,179,179)" stroke-linejoin="round" d="M 14046,7195 L 14046,7045"/>
 <path fill="none" stroke="rgb(179,179,179)" stroke-linejoin="round" d="M 14194,7195 L 14194,7045"/>
 <path fill="none" stroke="rgb(179,179,179)" stroke-linejoin="round" d="M 14194,7195 L 14194,7045"/>
 <path fill="none" stroke="rgb(179,179,179)" stroke-linejoin="round" d="M 14343,7195 L 14343,7045"/>
 <path fill="none" stroke="rgb(179,179,179)" stroke-linejoin="round" d="M 14343,7195 L 14343,7045"/>
 <path fill="none" stroke="rgb(179,179,179)" stroke-linejoin="round" d="M 14491,7195 L 14491,7045"/>
 <path fill="none" stroke="rgb(179,179,179)" stroke-linejoin="round" d="M 14491,7195 L 14491,7045"/>
 <path fill="none" stroke="rgb(179,179,179)" stroke-linejoin="round" d="M 14640,7195 L 14640,7045"/>
 <path fill="none" stroke="rgb(179,179,179)" stroke-linejoin="round" d="M 14640,7195 L 14640,7045"/>
 <path fill="none" stroke="rgb(179,179,179)" stroke-linejoin="round" d="M 14788,7195 L 14788,7045"/>
 <path fill="none" stroke="rgb(179,179,179)" stroke-linejoin="round" d="M 14788,7195 L 14788,7045"/>
 <path fill="none" stroke="rgb(179,179,179)" stroke-linejoin="round" d="M 14936,7195 L 14936,7045"/>
 <path fill="none" stroke="rgb(179,179,179)" stroke-linejoin="round" d="M 14936,7195 L 14936,7045"/>
 <path fill="none" stroke="rgb(179,179,179)" stroke-linejoin="round" d="M 15085,7195 L 15085,7045"/>
 <path fill="none" stroke="rgb(179,179,179)" stroke-linejoin="round" d="M 15085,7195 L 15085,7045"/>
 <path fill="none" stroke="rgb(179,179,179)" stroke-linejoin="round" d="M 15233,7195 L 15233,7045"/>
 <path fill="none" stroke="rgb(179,179,179)" stroke-linejoin="round" d="M 15233,7195 L 15233,7045"/>
 <path fill="none" stroke="rgb(179,179,179)" stroke-linejoin="round" d="M 15382,7195 L 15382,7045"/>
 <path fill="none" stroke="rgb(179,179,179)" stroke-linejoin="round" d="M 15382,7195 L 15382,7045"/>
 <path fill="none" stroke="rgb(179,179,179)" stroke-linejoin="round" d="M 15530,7195 L 15530,7045"/>
 <path fill="none" stroke="rgb(179,179,179)" stroke-linejoin="round" d="M 15530,7195 L 15530,7045"/>
 <path fill="none" stroke="rgb(179,179,179)" stroke-linejoin="round" d="M 15679,7195 L 15679,7045"/>
 <path fill="none" stroke="rgb(179,179,179)" stroke-linejoin="round" d="M 15679,7195 L 15679,7045"/>
 <path fill="none" stroke="rgb(179,179,179)" stroke-linejoin="round" d="M 2323,7045 L 15679,7045"/>
 <path fill="none" stroke="rgb(179,179,179)" stroke-linejoin="round" d="M 2173,7045 L 2323,7045"/>
 <path fill="none" stroke="rgb(179,179,179)" stroke-linejoin="round" d="M 2173,7045 L 2323,7045"/>
 <path fill="none" stroke="rgb(179,179,179)" stroke-linejoin="round" d="M 2173,6248 L 2323,6248"/>
 <path fill="none" stroke="rgb(179,179,179)" stroke-linejoin="round" d="M 2173,6248 L 2323,6248"/>
 <path fill="none" stroke="rgb(179,179,179)" stroke-linejoin="round" d="M 2173,5452 L 2323,5452"/>
 <path fill="none" stroke="rgb(179,179,179)" stroke-linejoin="round" d="M 2173,5452 L 2323,5452"/>
 <path fill="none" stroke="rgb(179,179,179)" stroke-linejoin="round" d="M 2173,4656 L 2323,4656"/>
 <path fill="none" stroke="rgb(179,179,179)" stroke-linejoin="round" d="M 2173,4656 L 2323,4656"/>
 <path fill="none" stroke="rgb(179,179,179)" stroke-linejoin="round" d="M 2173,3861 L 2323,3861"/>
 <path fill="none" stroke="rgb(179,179,179)" stroke-linejoin="round" d="M 2173,3861 L 2323,3861"/>
 <path fill="none" stroke="rgb(179,179,179)" stroke-linejoin="round" d="M 2173,3065 L 2323,3065"/>
 <path fill="none" stroke="rgb(179,179,179)" stroke-linejoin="round" d="M 2173,3065 L 2323,3065"/>
 <path fill="none" stroke="rgb(179,179,179)" stroke-linejoin="round" d="M 2173,2269 L 2323,2269"/>
 <path fill="none" stroke="rgb(179,179,179)" stroke-linejoin="round" d="M 2173,2269 L 2323,2269"/>
 <path fill="none" stroke="rgb(179,179,179)" stroke-linejoin="round" d="M 2173,1473 L 2323,1473"/>
 <path fill="none" stroke="rgb(179,179,179)" stroke-linejoin="round" d="M 2173,1473 L 2323,1473"/>
 <path fill="none" stroke="rgb(179,179,179)" stroke-linejoin="round" d="M 2323,7045 L 2323,1473"/>
 <path fill="rgb(0,69,134)" stroke="none" d="M 15419,7045 L 15493,7045 15493,5260 15419,5260 15419,7045 Z"/>
 <path fill="rgb(0,69,134)" stroke="none" d="M 15122,7045 L 15196,7045 15196,5810 15122,5810 15122,7045 Z"/>
 <path fill="rgb(0,69,134)" stroke="none" d="M 14825,7045 L 14899,7045 14899,5814 14825,5814 14825,7045 Z"/>
 <path fill="rgb(0,69,134)" stroke="none" d="M 14528,7045 L 14603,7045 14603,6470 14528,6470 14528,7045 Z"/>
 <path fill="rgb(0,69,134)" stroke="none" d="M 14231,7045 L 14306,7045 14306,6626 14231,6626 14231,7045 Z"/>
 <path fill="rgb(0,69,134)" stroke="none" d="M 13935,7045 L 14009,7045 14009,6588 13935,6588 13935,7045 Z"/>
 <path fill="rgb(0,69,134)" stroke="none" d="M 13638,7045 L 13712,7045 13712,6627 13638,6627 13638,7045 Z"/>
 <path fill="rgb(0,69,134)" stroke="none" d="M 13341,7045 L 13415,7045 13415,6634 13341,6634 13341,7045 Z"/>
 <path fill="rgb(0,69,134)" stroke="none" d="M 13044,7045 L 13118,7045 13118,4981 13044,4981 13044,7045 Z"/>
 <path fill="rgb(0,69,134)" stroke="none" d="M 12747,7045 L 12822,7045 12822,5293 12747,5293 12747,7045 Z"/>
 <path fill="rgb(0,69,134)" stroke="none" d="M 12451,7045 L 12525,7045 12525,6603 12451,6603 12451,7045 Z"/>
 <path fill="rgb(0,69,134)" stroke="none" d="M 12154,7045 L 12228,7045 12228,6616 12154,6616 12154,7045 Z"/>
 <path fill="rgb(0,69,134)" stroke="none" d="M 11857,7045 L 11931,7045 11931,6618 11857,6618 11857,7045 Z"/>
 <path fill="rgb(0,69,134)" stroke="none" d="M 11560,7045 L 11634,7045 11634,6570 11560,6570 11560,7045 Z"/>
 <path fill="rgb(0,69,134)" stroke="none" d="M 11263,7045 L 11337,7045 11337,6543 11263,6543 11263,7045 Z"/>
 <path fill="rgb(0,69,134)" stroke="none" d="M 10966,7045 L 11041,7045 11041,6562 10966,6562 10966,7045 Z"/>
 <path fill="rgb(0,69,134)" stroke="none" d="M 10670,7045 L 10744,7045 10744,6460 10670,6460 10670,7045 Z"/>
 <path fill="rgb(0,69,134)" stroke="none" d="M 10373,7045 L 10447,7045 10447,6357 10373,6357 10373,7045 Z"/>
 <path fill="rgb(0,69,134)" stroke="none" d="M 10076,7045 L 10150,7045 10150,6575 10076,6575 10076,7045 Z"/>
 <path fill="rgb(0,69,134)" stroke="none" d="M 9779,7045 L 9853,7045 9853,4194 9779,4194 9779,7045 Z"/>
 <path fill="rgb(0,69,134)" stroke="none" d="M 9482,7045 L 9557,7045 9557,6629 9482,6629 9482,7045 Z"/>
 <path fill="rgb(0,69,134)" stroke="none" d="M 9186,7045 L 9260,7045 9260,6607 9186,6607 9186,7045 Z"/>
 <path fill="rgb(0,69,134)" stroke="none" d="M 8889,7045 L 8963,7045 8963,6436 8889,6436 8889,7045 Z"/>
 <path fill="rgb(0,69,134)" stroke="none" d="M 8592,7045 L 8666,7045 8666,6616 8592,6616 8592,7045 Z"/>
 <path fill="rgb(0,69,134)" stroke="none" d="M 8295,7045 L 8369,7045 8369,6517 8295,6517 8295,7045 Z"/>
 <path fill="rgb(0,69,134)" stroke="none" d="M 7999,7045 L 8072,7045 8072,6584 7999,6584 7999,7045 Z"/>
 <path fill="rgb(0,69,134)" stroke="none" d="M 7702,7045 L 7777,7045 7777,6648 7702,6648 7702,7045 Z"/>
 <path fill="rgb(0,69,134)" stroke="none" d="M 7406,7045 L 7480,7045 7480,5694 7406,5694 7406,7045 Z"/>
 <path fill="rgb(0,69,134)" stroke="none" d="M 7109,7045 L 7183,7045 7183,5857 7109,5857 7109,7045 Z"/>
 <path fill="rgb(0,69,134)" stroke="none" d="M 6812,7045 L 6886,7045 6886,5011 6812,5011 6812,7045 Z"/>
 <path fill="rgb(0,69,134)" stroke="none" d="M 6515,7045 L 6589,7045 6589,6430 6515,6430 6515,7045 Z"/>
 <path fill="rgb(0,69,134)" stroke="none" d="M 6218,7045 L 6292,7045 6292,1902 6218,1902 6218,7045 Z"/>
 <path fill="rgb(0,69,134)" stroke="none" d="M 5921,7045 L 5996,7045 5996,6339 5921,6339 5921,7045 Z"/>
 <path fill="rgb(0,69,134)" stroke="none" d="M 5625,7045 L 5699,7045 5699,6083 5625,6083 5625,7045 Z"/>
 <path fill="rgb(0,69,134)" stroke="none" d="M 5328,7045 L 5402,7045 5402,5268 5328,5268 5328,7045 Z"/>
 <path fill="rgb(0,69,134)" stroke="none" d="M 5031,7045 L 5105,7045 5105,6559 5031,6559 5031,7045 Z"/>
 <path fill="rgb(0,69,134)" stroke="none" d="M 4734,7045 L 4808,7045 4808,4097 4734,4097 4734,7045 Z"/>
 <path fill="rgb(0,69,134)" stroke="none" d="M 4437,7045 L 4512,7045 4512,4874 4437,4874 4437,7045 Z"/>
 <path fill="rgb(0,69,134)" stroke="none" d="M 4141,7045 L 4215,7045 4215,5030 4141,5030 4141,7045 Z"/>
 <path fill="rgb(0,69,134)" stroke="none" d="M 3844,7045 L 3918,7045 3918,6183 3844,6183 3844,7045 Z"/>
 <path fill="rgb(0,69,134)" stroke="none" d="M 3547,7045 L 3621,7045 3621,6634 3547,6634 3547,7045 Z"/>
 <path fill="rgb(0,69,134)" stroke="none" d="M 3250,7045 L 3324,7045 3324,6631 3250,6631 3250,7045 Z"/>
 <path fill="rgb(0,69,134)" stroke="none" d="M 2953,7045 L 3027,7045 3027,5301 2953,5301 2953,7045 Z"/>
 <path fill="rgb(0,69,134)" stroke="none" d="M 2656,7045 L 2731,7045 2731,5702 2656,5702 2656,7045 Z"/>
 <path fill="rgb(0,69,134)" stroke="none" d="M 2360,7045 L 2434,7045 2434,5492 2360,5492 2360,7045 Z"/>
 <text class="TextShape" transform="translate(2349,7652) rotate(-44.9) translate(-2349,-7652)"><tspan class="TextParagraph" font-family="Liberation Sans, sans-serif" font-size="353px" font-weight="400"><tspan class="TextPosition" x="2349" y="7652"><tspan fill="rgb(0,0,0)" stroke="none">1</tspan></tspan></tspan></text>
 <text class="TextShape" transform="translate(2942,7652) rotate(-44.9) translate(-2942,-7652)"><tspan class="TextParagraph" font-family="Liberation Sans, sans-serif" font-size="353px" font-weight="400"><tspan class="TextPosition" x="2942" y="7652"><tspan fill="rgb(0,0,0)" stroke="none">5</tspan></tspan></tspan></text>
 <text class="TextShape" transform="translate(3536,7652) rotate(-44.9) translate(-3536,-7652)"><tspan class="TextParagraph" font-family="Liberation Sans, sans-serif" font-size="353px" font-weight="400"><tspan class="TextPosition" x="3536" y="7652"><tspan fill="rgb(0,0,0)" stroke="none">9</tspan></tspan></tspan></text>
 <text class="TextShape" transform="translate(3999,7782) rotate(-44.9) translate(-3999,-7782)"><tspan class="TextParagraph" font-family="Liberation Sans, sans-serif" font-size="353px" font-weight="400"><tspan class="TextPosition" x="3999" y="7782"><tspan fill="rgb(0,0,0)" stroke="none">13</tspan></tspan></tspan></text>
 <text class="TextShape" transform="translate(4592,7782) rotate(-44.9) translate(-4592,-7782)"><tspan class="TextParagraph" font-family="Liberation Sans, sans-serif" font-size="353px" font-weight="400"><tspan class="TextPosition" x="4592" y="7782"><tspan fill="rgb(0,0,0)" stroke="none">17</tspan></tspan></tspan></text>
 <text class="TextShape" transform="translate(5186,7782) rotate(-44.9) translate(-5186,-7782)"><tspan class="TextParagraph" font-family="Liberation Sans, sans-serif" font-size="353px" font-weight="400"><tspan class="TextPosition" x="5186" y="7782"><tspan fill="rgb(0,0,0)" stroke="none">21</tspan></tspan></tspan></text>
 <text class="TextShape" transform="translate(5780,7782) rotate(-44.9) translate(-5780,-7782)"><tspan class="TextParagraph" font-family="Liberation Sans, sans-serif" font-size="353px" font-weight="400"><tspan class="TextPosition" x="5780" y="7782"><tspan fill="rgb(0,0,0)" stroke="none">25</tspan></tspan></tspan></text>
 <text class="TextShape" transform="translate(6373,7782) rotate(-44.9) translate(-6373,-7782)"><tspan class="TextParagraph" font-family="Liberation Sans, sans-serif" font-size="353px" font-weight="400"><tspan class="TextPosition" x="6373" y="7782"><tspan fill="rgb(0,0,0)" stroke="none">29</tspan></tspan></tspan></text>
 <text class="TextShape" transform="translate(6967,7782) rotate(-44.9) translate(-6967,-7782)"><tspan class="TextParagraph" font-family="Liberation Sans, sans-serif" font-size="353px" font-weight="400"><tspan class="TextPosition" x="6967" y="7782"><tspan fill="rgb(0,0,0)" stroke="none">33</tspan></tspan></tspan></text>
 <text class="TextShape" transform="translate(7561,7782) rotate(-44.9) translate(-7561,-7782)"><tspan class="TextParagraph" font-family="Liberation Sans, sans-serif" font-size="353px" font-weight="400"><tspan class="TextPosition" x="7561" y="7782"><tspan fill="rgb(0,0,0)" stroke="none">37</tspan></tspan></tspan></text>
 <text class="TextShape" transform="translate(8154,7782) rotate(-44.9) translate(-8154,-7782)"><tspan class="TextParagraph" font-family="Liberation Sans, sans-serif" font-size="353px" font-weight="400"><tspan class="TextPosition" x="8154" y="7782"><tspan fill="rgb(0,0,0)" stroke="none">41</tspan></tspan></tspan></text>
 <text class="TextShape" transform="translate(8748,7782) rotate(-44.9) translate(-8748,-7782)"><tspan class="TextParagraph" font-family="Liberation Sans, sans-serif" font-size="353px" font-weight="400"><tspan class="TextPosition" x="8748" y="7782"><tspan fill="rgb(0,0,0)" stroke="none">45</tspan></tspan></tspan></text>
 <text class="TextShape" transform="translate(9341,7782) rotate(-44.9) translate(-9341,-7782)"><tspan class="TextParagraph" font-family="Liberation Sans, sans-serif" font-size="353px" font-weight="400"><tspan class="TextPosition" x="9341" y="7782"><tspan fill="rgb(0,0,0)" stroke="none">49</tspan></tspan></tspan></text>
 <text class="TextShape" transform="translate(9935,7782) rotate(-44.9) translate(-9935,-7782)"><tspan class="TextParagraph" font-family="Liberation Sans, sans-serif" font-size="353px" font-weight="400"><tspan class="TextPosition" x="9935" y="7782"><tspan fill="rgb(0,0,0)" stroke="none">53</tspan></tspan></tspan></text>
 <text class="TextShape" transform="translate(10529,7782) rotate(-44.9) translate(-10529,-7782)"><tspan class="TextParagraph" font-family="Liberation Sans, sans-serif" font-size="353px" font-weight="400"><tspan class="TextPosition" x="10529" y="7782"><tspan fill="rgb(0,0,0)" stroke="none">57</tspan></tspan></tspan></text>
 <text class="TextShape" transform="translate(11122,7782) rotate(-44.9) translate(-11122,-7782)"><tspan class="TextParagraph" font-family="Liberation Sans, sans-serif" font-size="353px" font-weight="400"><tspan class="TextPosition" x="11122" y="7782"><tspan fill="rgb(0,0,0)" stroke="none">61</tspan></tspan></tspan></text>
 <text class="TextShape" transform="translate(11715,7782) rotate(-44.9) translate(-11715,-7782)"><tspan class="TextParagraph" font-family="Liberation Sans, sans-serif" font-size="353px" font-weight="400"><tspan class="TextPosition" x="11715" y="7782"><tspan fill="rgb(0,0,0)" stroke="none">65</tspan></tspan></tspan></text>
 <text class="TextShape" transform="translate(12309,7782) rotate(-44.9) translate(-12309,-7782)"><tspan class="TextParagraph" font-family="Liberation Sans, sans-serif" font-size="353px" font-weight="400"><tspan class="TextPosition" x="12309" y="7782"><tspan fill="rgb(0,0,0)" stroke="none">69</tspan></tspan></tspan></text>
 <text class="TextShape" transform="translate(12902,7782) rotate(-44.9) translate(-12902,-7782)"><tspan class="TextParagraph" font-family="Liberation Sans, sans-serif" font-size="353px" font-weight="400"><tspan class="TextPosition" x="12902" y="7782"><tspan fill="rgb(0,0,0)" stroke="none">73</tspan></tspan></tspan></text>
 <text class="TextShape" transform="translate(13496,7782) rotate(-44.9) translate(-13496,-7782)"><tspan class="TextParagraph" font-family="Liberation Sans, sans-serif" font-size="353px" font-weight="400"><tspan class="TextPosition" x="13496" y="7782"><tspan fill="rgb(0,0,0)" stroke="none">77</tspan></tspan></tspan></text>
 <text class="TextShape" transform="translate(14090,7782) rotate(-44.9) translate(-14090,-7782)"><tspan class="TextParagraph" font-family="Liberation Sans, sans-serif" font-size="353px" font-weight="400"><tspan class="TextPosition" x="14090" y="7782"><tspan fill="rgb(0,0,0)" stroke="none">81</tspan></tspan></tspan></text>
 <text class="TextShape" transform="translate(14683,7782) rotate(-44.9) translate(-14683,-7782)"><tspan class="TextParagraph" font-family="Liberation Sans, sans-serif" font-size="353px" font-weight="400"><tspan class="TextPosition" x="14683" y="7782"><tspan fill="rgb(0,0,0)" stroke="none">85</tspan></tspan></tspan></text>
 <text class="TextShape" transform="translate(15277,7782) rotate(-44.9) translate(-15277,-7782)"><tspan class="TextParagraph" font-family="Liberation Sans, sans-serif" font-size="353px" font-weight="400"><tspan class="TextPosition" x="15277" y="7782"><tspan fill="rgb(0,0,0)" stroke="none">89</tspan></tspan></tspan></text>
 <text class="TextShape"><tspan class="TextParagraph" font-family="Liberation Sans, sans-serif" font-size="353px" font-weight="400"><tspan class="TextPosition" x="1888" y="7166"><tspan fill="rgb(0,0,0)" stroke="none">0</tspan></tspan></tspan></text>
 <text class="TextShape"><tspan class="TextParagraph" font-family="Liberation Sans, sans-serif" font-size="353px" font-weight="400"><tspan class="TextPosition" x="1517" y="6369"><tspan fill="rgb(0,0,0)" stroke="none">500</tspan></tspan></tspan></text>
 <text class="TextShape"><tspan class="TextParagraph" font-family="Liberation Sans, sans-serif" font-size="353px" font-weight="400"><tspan class="TextPosition" x="1332" y="5573"><tspan fill="rgb(0,0,0)" stroke="none">1000</tspan></tspan></tspan></text>
 <text class="TextShape"><tspan class="TextParagraph" font-family="Liberation Sans, sans-serif" font-size="353px" font-weight="400"><tspan class="TextPosition" x="1332" y="4777"><tspan fill="rgb(0,0,0)" stroke="none">1500</tspan></tspan></tspan></text>
 <text class="TextShape"><tspan class="TextParagraph" font-family="Liberation Sans, sans-serif" font-size="353px" font-weight="400"><tspan class="TextPosition" x="1332" y="3981"><tspan fill="rgb(0,0,0)" stroke="none">2000</tspan></tspan></tspan></text>
 <text class="TextShape"><tspan class="TextParagraph" font-family="Liberation Sans, sans-serif" font-size="353px" font-weight="400"><tspan class="TextPosition" x="1332" y="3185"><tspan fill="rgb(0,0,0)" stroke="none">2500</tspan></tspan></tspan></text>
 <text class="TextShape"><tspan class="TextParagraph" font-family="Liberation Sans, sans-serif" font-size="353px" font-weight="400"><tspan class="TextPosition" x="1332" y="2389"><tspan fill="rgb(0,0,0)" stroke="none">3000</tspan></tspan></tspan></text>
 <text class="TextShape"><tspan class="TextParagraph" font-family="Liberation Sans, sans-serif" font-size="353px" font-weight="400"><tspan class="TextPosition" x="1332" y="1593"><tspan fill="rgb(0,0,0)" stroke="none">3500</tspan></tspan></tspan></text>
 <text class="TextShape"><tspan class="TextParagraph" font-family="Liberation Sans, sans-serif" font-size="459px" font-weight="400"><tspan class="TextPosition" x="4137" y="851"><tspan fill="rgb(0,0,0)" stroke="none">Uncached Certificate Positive Override</tspan></tspan></tspan></text>
 <text class="TextShape"><tspan class="TextParagraph" font-family="Liberation Sans, sans-serif" font-size="318px" font-weight="400"><tspan class="TextPosition" x="7923" y="8405"><tspan fill="rgb(0,0,0)" stroke="none">Iteration</tspan></tspan></tspan></text>
 <text class="TextShape" transform="translate(837,6792) rotate(-90) translate(-837,-6792)"><tspan class="TextParagraph" font-family="Liberation Sans, sans-serif" font-size="318px" font-weight="400"><tspan class="TextPosition" x="837" y="6792"><tspan fill="rgb(0,0,0)" stroke="none">Added Latency (microseconds)</tspan></tspan></tspan></text>
</svg>